<?xml version="1.0" encoding="UTF-8"?>
<svg width="133px" height="40px" viewBox="0 0 133 40" version="1.1" xmlns="http://www.w3.org/2000/svg" xmlns:xlink="http://www.w3.org/1999/xlink">
    <title>huawei-et</title>
    <g id="Symbols" stroke="none" stroke-width="1" fill="none" fill-rule="evenodd">
        <g id="huawei-et">
            <path d="M123.499558,0 L9.37916719,0 C9.0184375,0 8.66203125,0 8.30225938,0.001921875 C8.00109375,0.0038421875 7.70232813,0.00960625 7.39827188,0.014409375 C6.73771502,0.0221975222 6.07871277,0.0803263289 5.42699219,0.188290625 C4.77618905,0.298572994 4.14577042,0.506498864 3.55705781,0.805035937 C2.96906514,1.10613115 2.43180204,1.49736956 1.96475938,1.96455781 C1.49526209,2.43041601 1.1038995,2.96888442 0.805720313,3.55925781 C0.506717588,4.14845607 0.299387449,4.77983636 0.190890625,5.43159219 C0.0813667649,6.08251394 0.0224300493,6.74094185 0.014609375,7.40096719 C0.0054828125,7.70260937 0.004521875,8.00522031 -0.0002890625,8.306875 L-0.0002890625,31.5582344 C0.004521875,31.8636797 0.0054828125,32.1595828 0.014609375,32.4651266 C0.0224308643,33.1251301 0.0813675859,33.7835361 0.190890625,34.4344359 C0.299088153,35.0865727 0.506430537,35.7183154 0.805720313,36.3077344 C1.10376426,36.8961985 1.49518187,37.4324868 1.96475938,37.8957547 C2.43003442,38.3650027 2.96764466,38.7564902 3.55705781,39.0552656 C4.14576325,39.354618 4.77611405,39.5637972 5.42699219,39.6757953 C6.07882487,39.7828782 6.7377593,39.8410146 7.39827188,39.8497172 C7.70233438,39.8564063 8.00109375,39.8602438 8.30225938,39.8602438 C8.662025,39.8622109 9.0184375,39.8622109 9.37916719,39.8622109 L123.499558,39.8622109 C123.853108,39.8622109 124.21237,39.8622109 124.565911,39.8602438 C124.86565,39.8602438 125.173062,39.8564063 125.472803,39.8497172 C126.132066,39.8414775 126.789759,39.7833374 127.440244,39.6757953 C128.093221,39.5630087 128.725832,39.3538849 129.317378,39.0552656 C129.906261,38.7563182 130.443376,38.3648413 130.908253,37.8957547 C131.376618,37.4306725 131.768871,36.8947764 132.070614,36.3077344 C132.367657,35.7178867 132.573025,35.0861944 132.679636,34.4344359 C132.789335,33.7834469 132.850363,33.1251873 132.862214,32.4651266 C132.866052,32.1595828 132.866052,31.8636797 132.866052,31.5582344 C132.873727,31.2008484 132.873727,30.8454313 132.873727,30.4822406 L132.873727,9.38088438 C132.873727,9.02063594 132.873727,8.66327031 132.866052,8.30686875 C132.866052,8.00522031 132.866052,7.70260937 132.862214,7.40096094 C132.850364,6.74087841 132.789336,6.08259692 132.679636,5.43158594 C132.572728,4.78020726 132.367372,4.14887693 132.070614,3.55925156 C131.463387,2.3759113 130.500502,1.41268167 129.317378,0.805032812 C128.725827,0.507225255 128.093149,0.299354603 127.440244,0.1882875 C126.789872,0.0798652998 126.13211,0.0217337551 125.472803,0.014409375 C125.173063,0.00960625 124.86565,0.0038421875 124.565911,0.001921875 C124.212362,0 123.853108,0 123.499558,0 Z" id="Path" fill="#000000" fill-rule="nonzero"></path>
            <path d="M8.30705937,39.00145 C8.00734062,39.00145 7.71481094,38.9976125 7.41749219,38.9909234 C6.80146856,38.9828977 6.18688472,38.9292693 5.57878125,38.8304781 C5.01175517,38.7328234 4.46245937,38.5511662 3.9490125,38.2914984 C3.4402834,38.0339806 2.97628236,37.6963189 2.57478437,37.2914484 C2.16746517,36.8913451 1.8283534,36.4272934 1.5708875,35.9176828 C1.31059143,35.4047591 1.13045339,34.8549679 1.03674844,34.2874609 C0.935548061,33.6776675 0.880794329,33.0610702 0.872959375,32.4429859 C0.866720312,32.2355188 0.85855625,31.5447516 0.85855625,31.5447516 L0.85855625,8.306875 C0.85855625,8.306875 0.867203125,7.62671875 0.872959375,7.42689844 C0.88046061,6.80979289 0.93489579,6.19415207 1.03579375,5.58530469 C1.12967798,5.01623986 1.30996255,4.46486105 1.57040625,3.95025625 C1.82692548,3.44099831 2.16415396,2.97660052 2.56901875,2.57506562 C2.97342918,2.1697151 3.43892463,1.83031442 3.94852969,1.56924062 C4.46079721,1.31040728 5.0090555,1.13003141 5.57493594,1.03415625 C6.18502953,0.934372857 6.80173991,0.880424566 7.41989219,0.872764062 L8.30754844,0.860754687 L124.561094,0.860754687 L125.459328,0.87324375 C126.071865,0.880523517 126.68298,0.933991304 127.287475,1.03319219 C127.859083,1.13027041 128.413055,1.31190503 128.931173,1.57212344 C129.952095,2.09826215 130.7828,2.93066305 131.306855,3.95265625 C131.56314,4.46370608 131.740644,5.01058455 131.833341,5.57473125 C131.935441,6.1885742 131.992584,6.80905307 132.004312,7.43121875 C132.007164,7.7098125 132.007164,8.00905625 132.007164,8.30686719 C132.014939,8.6757625 132.014939,9.02688125 132.014939,9.38088281 L132.014939,30.4822344 C132.014939,30.8396203 132.014939,31.18835 132.007164,31.5399312 C132.007164,31.8598359 132.007164,32.1528875 132.003328,32.4544953 C131.991853,33.0655587 131.935664,33.6749626 131.835211,34.2778219 C131.743419,34.8494234 131.564255,35.4035056 131.304002,35.9206344 C131.044717,36.424713 130.707554,36.8847447 130.304939,37.283775 C129.903071,37.6908236 129.438242,38.0304612 128.928322,38.2896297 C128.411638,38.5512925 127.858483,38.7336214 127.287477,38.8304781 C126.679419,38.9297965 126.064776,38.9834283 125.448706,38.9909234 C125.160581,38.9976125 124.858863,39.00145 124.565916,39.00145 L123.499563,39.0034172 L8.30705937,39.00145 Z" id="Path" fill="#000000" fill-rule="nonzero"></path>
            <path d="M49.2803297,26.9412344 L44.6693422,26.9412344 L43.540625,30.0259078 L41.5133875,30.0259078 L46.0289062,18.5059578 L47.9449734,18.5059578 L52.5638094,30.0259078 L50.4332469,30.0259078 L49.2803297,26.9412344 Z M45.2500469,25.3750281 L48.6924297,25.3750281 L47.4597375,22.0755328 C47.2903625,21.6197307 47.123388,21.1162995 46.9588141,20.5652391 C46.8103672,21.0527578 46.6488422,21.5509573 46.4742391,22.0598375 L45.2500469,25.3750281 Z" id="Shape" fill="#FFFFFF" fill-rule="nonzero"></path>
            <path d="M53.4786766,23.5465891 C53.4786766,22.9102984 53.4575307,22.210574 53.4152391,21.4474156 L55.259375,21.4474156 C55.3286576,21.8074166 55.3764804,22.1712176 55.4025906,22.5368937 C56.165749,21.7047437 57.0402953,21.2886146 58.0262297,21.2885063 C59.2301308,21.2691708 60.3257241,21.9811637 60.7970109,23.0891531 C61.0965203,23.7120375 61.2462745,24.5030964 61.2462734,25.4623297 C61.2705544,26.3460686 61.0950793,27.223893 60.732925,28.0303844 C60.4274391,28.7001369 59.927519,29.2624899 59.2981625,29.6443281 C58.6514446,30.0184451 57.914578,30.208203 57.1676,30.1929906 C56.580147,30.1921091 55.997008,30.0926351 55.4424844,29.8987141 L55.4424844,33.4444203 L53.4786781,33.6115047 L53.4786766,23.5465891 Z M58.64225,27.9309844 C59.0424667,27.3931125 59.242575,26.6073937 59.242575,25.5738281 C59.242575,24.6144854 59.0769083,23.9187937 58.745575,23.4867531 C58.4377093,23.0663549 57.9428418,22.8241783 57.4219813,22.8390172 C57.0520551,22.8358961 56.6876677,22.928965 56.3645469,23.1090984 C56.0231206,23.303403 55.712387,23.5472518 55.4424797,23.8326922 L55.4424797,28.4279844 C55.6602791,28.53085 55.8897442,28.6069361 56.1258547,28.6545781 C56.3794115,28.7095234 56.6380727,28.7374719 56.8975141,28.7379563 C57.6606745,28.7379563 58.2422531,28.4689656 58.64225,27.9309844 Z" id="Shape" fill="#FFFFFF" fill-rule="nonzero"></path>
            <path d="M62.5031609,23.5465891 C62.5031609,22.9102984 62.4820151,22.210574 62.4397234,21.4474156 L64.2838562,21.4474156 C64.3531383,21.8074167 64.4009607,22.1712176 64.4270703,22.5368937 C65.1902276,21.7047437 66.0647745,21.2886146 67.0507109,21.2885063 C68.2546121,21.2691708 69.3502053,21.9811637 69.8214922,23.0891531 C70.1210005,23.7120375 70.2707547,24.5030964 70.2707547,25.4623297 C70.295036,26.3460688 70.1195603,27.2238934 69.7574047,28.0303844 C69.4519193,28.7001372 68.9519991,29.2624903 68.3226422,29.6443281 C67.6759243,30.0184451 66.9390577,30.208203 66.1920797,30.1929906 C65.6046271,30.1921093 65.0214887,30.0926353 64.4669656,29.8987141 L64.4669656,33.4444203 L62.5031594,33.6115047 L62.5031609,23.5465891 Z M67.6667344,27.9309844 C68.066951,27.3931125 68.2670594,26.6073937 68.2670594,25.5738281 C68.2670594,24.6144854 68.1013922,23.9187937 67.7700578,23.4867531 C67.4621921,23.0663549 66.9673246,22.8241783 66.4464641,22.8390172 C66.076538,22.8358966 65.7121506,22.9289654 65.3890297,23.1090984 C65.0476042,23.3034035 64.7368711,23.5472521 64.4669641,23.8326922 L64.4669641,28.4279844 C64.6847634,28.53085 64.9142286,28.6069361 65.1503391,28.6545781 C65.4038959,28.7095236 65.6625571,28.7374721 65.9219984,28.7379563 C66.6851568,28.7379563 67.2667354,28.4689656 67.6667344,27.9309844 Z" id="Shape" fill="#FFFFFF" fill-rule="nonzero"></path>
            <path d="M73.9753719,29.4811688 C73.1358387,29.0210858 72.4542729,28.3188975 72.0194125,27.4660266 C71.5636104,26.5913714 71.3358188,25.5578068 71.3360373,24.3653328 C71.3360373,23.0721495 71.5982708,21.9736255 72.1227375,21.0697609 C72.6190004,20.1935458 73.3650623,19.4850489 74.265725,19.034675 C75.2116482,18.5717193 76.2535683,18.3387994 77.3065828,18.3548953 C77.9449685,18.3521106 78.581404,18.4255468 79.2023797,18.5736453 C79.7831629,18.7119505 80.347144,18.9131382 80.8843344,19.1736453 L80.3834094,20.6842703 C79.4554579,20.2147197 78.4339606,19.9594017 77.3942125,19.9371359 C76.660335,19.9205116 75.9350079,20.0973327 75.2911156,20.4498313 C74.682266,20.799275 74.1931261,21.3244273 73.8877422,21.9565266 C73.5349778,22.7065551 73.3633918,23.5289821 73.3868188,24.3574969 C73.3734407,25.1042604 73.5044509,25.8465766 73.7726484,26.5436453 C74.0136753,27.1599576 74.4382915,27.6873051 74.9889922,28.0542703 C75.5428859,28.4253859 76.2410844,28.6108896 77.0835875,28.6107813 C77.4672594,28.6106975 77.8502622,28.5787623 78.22865,28.5153047 C78.5942211,28.456069 78.9534809,28.3629147 79.301775,28.2370484 L79.301775,25.9076687 L76.6389063,25.9076687 L76.6389063,24.3813547 L81.21,24.3813547 L81.21,29.2310328 C80.5469465,29.5402934 79.8526206,29.7775088 79.1389469,29.9386047 C78.430839,30.1010356 77.7067619,30.1836216 76.9802641,30.1848172 C75.824738,30.1848172 74.8231073,29.9502677 73.9753719,29.4811688 Z" id="Path" fill="#FFFFFF" fill-rule="nonzero"></path>
            <path d="M88.2857187,30.0259078 C88.2119803,29.6509201 88.1669451,29.2708552 88.1510047,28.8890187 C87.8222815,29.2705382 87.4207753,29.5826724 86.969975,29.8071609 C86.4616331,30.0644911 85.8982563,30.1941134 85.3285687,30.1848172 C84.8632062,30.1907899 84.4024968,30.0916511 83.9807812,29.8947906 C83.5795108,29.705019 83.2434214,29.4006724 83.0149,29.0201344 C82.7649809,28.5871407 82.641082,28.0929038 82.6571906,27.5932203 C82.6281115,26.8252417 82.9607056,26.088039 83.5557141,25.6016219 C84.1547307,25.1059281 85.1537458,24.8580818 86.5527594,24.8580828 C87.0742118,24.8578826 87.5950048,24.8951441 88.1111172,24.9695797 L88.1111172,24.8025 C88.1111172,24.044574 87.949374,23.510625 87.6258875,23.2006531 C87.3028375,22.8906823 86.8391885,22.735588 86.2349406,22.7353703 C85.7811039,22.7401386 85.3296454,22.8016509 84.8910766,22.918475 C84.4595272,23.024405 84.0389224,23.1707736 83.6348422,23.3556391 L83.3248703,21.9244734 C83.7709643,21.7345263 84.2343672,21.5881248 84.7086203,21.4873094 C85.3033438,21.3523329 85.9115228,21.2856351 86.5213641,21.2885094 C87.1684478,21.2709931 87.8122737,21.3860491 88.4132391,21.6266 C88.941324,21.8601513 89.3714577,22.2705128 89.6295828,22.7870312 C89.9212432,23.3356937 90.067074,24.0737833 90.067075,25.0013 L90.067075,28.4119656 C90.067075,28.7670594 90.0882208,29.3050411 90.1305125,30.0259109 L88.2857187,30.0259078 Z M87.1092656,28.4358328 C87.4885764,28.2611411 87.8291852,28.0124652 88.1111141,27.7043906 L88.1111141,26.1143172 C87.6756523,26.0624677 87.2377861,26.0333272 86.7992937,26.0270141 C85.9883979,26.0270141 85.4279646,26.1581307 85.1179937,26.4203641 C84.8076222,26.6835142 84.6360492,27.0751632 84.6530359,27.4817219 C84.6530359,27.9058083 84.7655151,28.2199229 84.9904734,28.4240656 C85.2466176,28.6388569 85.574827,28.7482602 85.9086172,28.7301141 C86.3259445,28.7241297 86.7364713,28.6235088 87.1092656,28.4358328 Z" id="Shape" fill="#FFFFFF" fill-rule="nonzero"></path>
            <path d="M91.7849999,27.966625 L91.7849999,17.8301016 L93.7403047,17.6711953 L93.7403047,27.6170922 C93.7403047,27.9826505 93.8026484,28.2409599 93.9273359,28.3920203 C94.0794439,28.5546898 94.2979765,28.6382678 94.5198141,28.6186141 C94.6948763,28.6101337 94.8683048,28.5808267 95.0364328,28.5313125 L95.2672766,29.9386078 C95.0474585,30.021863 94.8195069,30.0818098 94.5871703,30.1174625 C94.336388,30.1608544 94.0824405,30.1833841 93.8279359,30.1848203 C92.4657578,30.1848203 91.7847792,29.4454198 91.7849999,27.966625 Z" id="Path" fill="#FFFFFF" fill-rule="nonzero"></path>
            <path d="M96.674564,27.966625 L96.674564,17.8301016 L98.6298766,17.6711953 L98.6298766,27.6170922 C98.6298766,27.9826505 98.6922203,28.2409599 98.8169078,28.3920203 C98.9690153,28.5546896 99.1875473,28.6382675 99.4093844,28.6186141 C99.5844466,28.6101337 99.7578751,28.5808267 99.9260031,28.5313125 L100.156847,29.9386078 C99.9370294,30.0218632 99.7090783,30.08181 99.4767422,30.1174625 C99.2259599,30.1608544 98.9720123,30.1833841 98.7175078,30.1848203 C97.3553276,30.1848203 96.6743464,29.4454198 96.674564,27.966625 Z" id="Path" fill="#FFFFFF" fill-rule="nonzero"></path>
            <path d="M108.297837,25.9871234 L102.685,25.9871234 C102.775246,27.7838453 103.631264,28.6822609 105.253055,28.6823703 C105.669529,28.6807503 106.084444,28.6313821 106.48967,28.5352328 C106.904422,28.4392719 107.310079,28.3075537 107.702089,28.1415563 L108.13108,29.4854187 C107.12023,29.9630799 106.013232,30.2023556 104.895345,30.1848172 C103.98374,30.1848172 103.215133,30.0126104 102.589523,29.6681969 C101.9741,29.333836 101.480152,28.8134514 101.178303,28.1814469 C100.844873,27.4483985 100.683165,26.6489135 100.7055,25.8439062 C100.683292,25.0002322 100.85465,24.1626828 101.206425,23.3955234 C101.507971,22.7479168 101.993271,22.2032627 102.60195,21.8293187 C103.225977,21.4611801 103.940125,21.2739255 104.664503,21.2885031 C105.384397,21.2623818 106.094554,21.4611208 106.696319,21.8571109 C107.237514,22.2340683 107.657397,22.7602852 107.904816,23.3716547 C108.173301,24.0355479 108.306906,24.7462564 108.297838,25.4623266 L108.297837,25.9871234 Z M106.38177,24.7390625 C106.345148,24.0553594 106.172942,23.5425547 105.865152,23.2006484 C105.550763,22.8555906 105.099488,22.6677978 104.63312,22.6879531 C104.163796,22.6758282 103.711411,22.8636291 103.388658,23.2045734 C103.05776,23.5492036 102.841739,24.0607 102.740595,24.7390625 L106.38177,24.7390625 Z" id="Shape" fill="#FFFFFF" fill-rule="nonzero"></path>
            <path d="M109.880392,23.602175 C109.880392,23.130351 109.859246,22.4120979 109.816955,21.4474156 L111.653241,21.4474156 C111.685284,21.6861062 111.715802,21.9710099 111.744794,22.3021266 C111.773568,22.6336776 111.793404,22.9026682 111.804303,23.1090984 C112.002181,22.7748794 112.226782,22.4572227 112.475908,22.1592391 C112.692757,21.9046482 112.954264,21.691786 113.247567,21.5311219 C113.556348,21.3656334 113.902411,21.2821005 114.252684,21.2885063 C114.515719,21.2834823 114.778144,21.3156252 115.032191,21.3839828 L114.785653,23.0852328 C114.579042,23.0248181 114.364609,22.9953972 114.149361,22.9979313 C113.719722,22.9886983 113.297697,23.1122458 112.940866,23.3517172 C112.510656,23.6760129 112.137389,24.069614 111.836347,24.5164047 L111.836347,30.0259188 L109.880392,30.0259188 L109.880392,23.602175 Z" id="Path" fill="#FFFFFF" fill-rule="nonzero"></path>
            <path d="M116.209956,33.5359734 C115.970092,33.4970564 115.733547,33.4398877 115.502384,33.3649656 L115.860094,31.9341281 C115.992192,31.971075 116.159602,32.0067156 116.361019,32.041375 C116.549963,32.0746431 116.741376,32.0919251 116.933223,32.0930375 C117.80232,32.0930375 118.454306,31.5338026 118.889181,30.4153328 L119.016047,30.0975203 L115.852247,21.4474219 L117.958614,21.4474219 L119.549016,26.2814062 C119.75566,26.9036269 119.922965,27.5382286 120.049939,28.1814531 C120.198386,27.5611823 120.373208,26.9410214 120.574406,26.3209703 L122.18835,21.4474219 L124.16785,21.4474219 L121.011897,30.1370844 C120.774867,30.8369521 120.451736,31.5046323 120.049939,32.1247594 C119.742843,32.5941467 119.3234,32.9794225 118.829672,33.2456266 C118.301568,33.5026927 117.719125,33.6282226 117.132016,33.6115109 C116.823053,33.6131436 116.514534,33.587869 116.209956,33.5359734 L116.209956,33.5359734 Z" id="Path" fill="#FFFFFF" fill-rule="nonzero"></path>
            <g id="形状_1_拷贝_25" transform="translate(8.593750, 7.187500)" fill="#CE0E2D">
                <path d="M18.3358859,0.06433125 L7.24645625,0.06433125 C2.0226,0.06433125 0.1118375,1.97505625 0.1118375,7.19884531 L0.1118375,18.2883516 C0.1118375,23.5121406 2.0226,25.4228656 7.24641875,25.4228656 L18.3324141,25.4228656 C23.5562703,25.4228656 25.4705141,23.5121406 25.4705141,18.2883516 L25.4705141,7.19884531 C25.4705141,1.97505625 23.5597516,0.06433125 18.3358859,0.06433125 Z" id="Path"></path>
            </g>
            <path d="M13.7273313,19.9333203 L14.3997703,19.9333203 L14.3997703,23.2487891 L13.7273313,23.2487891 L13.7273313,21.9022797 L12.2084047,21.9022797 L12.2084047,23.2487891 L11.5356406,23.2487891 L11.5356406,19.9333203 L12.2084047,19.9333203 L12.2084047,21.2707375 L13.7273313,21.2707375 L13.7273313,19.9333203 Z M17.5166547,21.8310328 C17.5166547,22.3700266 17.2491047,22.6580328 16.7630344,22.6580328 C16.2743656,22.6580328 16.0051906,22.3619094 16.0051906,21.8079797 L16.0051906,19.9351391 L15.332425,19.9351391 L15.332425,21.8310328 C15.332425,22.7635563 15.8506406,23.2983313 16.7539375,23.2983313 C17.6660125,23.2983313 18.1890937,22.7534875 18.1890937,21.8034344 L18.1890937,19.9331922 L17.5166547,19.9331922 L17.5166547,21.8310328 Z M25.2909547,22.2131344 L24.5382984,19.9331344 L23.9892453,19.9331344 L23.2365891,22.2131344 L22.5040891,19.93475 L21.7881312,19.93475 L22.9437266,23.2485875 L23.5005781,23.2485875 L24.2545172,21.0718313 L25.0081391,23.2485875 L25.5698578,23.2485875 L26.7225312,19.93475 L26.0250828,19.93475 L25.2909547,22.2131344 Z M27.9284875,21.8218438 L29.151925,21.8218438 L29.151925,21.2182391 L27.9284875,21.2182391 L27.9284875,20.539625 L29.7045594,20.539625 L29.7045594,19.9353672 L27.2648094,19.9353672 L27.2648094,23.2466062 L29.7685312,23.2466062 L29.7685312,22.6426766 L27.9284875,22.6426766 L27.9284875,21.8218438 Z M30.5705281,23.2445 L31.2342078,23.2445 L31.2342078,19.9332562 L30.5705281,19.9332562 L30.5705281,23.2445 Z M19.5185937,22.5565 L19.2169469,23.2468016 L18.5302281,23.2468016 L19.9906969,19.9332891 L20.5842406,19.9332891 L22.0388781,23.2468016 L21.3336422,23.2468016 L21.0358891,22.5565 L19.5185937,22.5565 Z M19.7689328,21.9587391 L20.7858734,21.9587391 L20.2757828,20.7723 L19.7689328,21.9587391 Z" id="Shape" fill="#FFFFFF" fill-rule="nonzero"></path>
            <path d="M21.384875,15.7120094 C19.0547307,15.7093452 17.1664552,13.8210256 17.1638453,11.4908813 L17.7602219,11.4908813 C17.7593713,12.7864295 18.4500495,13.9839296 19.5718857,14.6319494 C20.6937219,15.2799692 22.0761266,15.2799692 23.1979627,14.6319494 C24.3197989,13.9839296 25.0104772,12.7864295 25.0096266,11.4908813 L25.6060016,11.4908813 C25.6033804,13.8210588 23.7150525,15.7093874 21.384875,15.7120094 Z" id="Path" fill="#FFFFFF" fill-rule="nonzero"></path>
            <path d="M42.9581453,7.26544062 L44.1011047,7.26544062 L46.4643859,13.4013781 L45.3128125,13.4013781 L44.7370219,11.7771594 L42.2878344,11.7771594 L41.7120437,13.4013781 L40.6034844,13.4013781 L42.9581453,7.26544062 Z M42.5800328,10.9607375 L44.4534375,10.9607375 L43.5339359,8.3225 L43.5081547,8.3225 L42.5800328,10.9607375 Z" id="Shape" fill="#FFFFFF" fill-rule="nonzero"></path>
            <polygon id="Path" fill="#FFFFFF" fill-rule="nonzero" points="45.67375 7.26544062 46.7909219 7.26544062 48.3292375 12.1209406 48.3464031 12.1209406 49.91905 7.26544063 51.0104359 7.26544063 48.9135734 13.4013781 47.7190422 13.4013781"></polygon>
            <path d="M52.6432812,7.26544062 L53.7862406,7.26544062 L56.1495219,13.4013781 L54.9979422,13.4013781 L54.4221516,11.7771594 L51.9729687,11.7771594 L51.3971781,13.4013781 L50.2886281,13.4013781 L52.6432812,7.26544062 Z M52.2651687,10.9607375 L54.1385672,10.9607375 L53.2190703,8.3225 L53.1932891,8.3225 L52.2651687,10.9607375 Z" id="Shape" fill="#FFFFFF" fill-rule="nonzero"></path>
            <path d="M57.2924047,11.3560937 C57.2866028,11.5631045 57.3277347,11.7687433 57.4127172,11.9575953 C57.4891019,12.1192082 57.6042318,12.2594461 57.7478734,12.3658437 C57.8961034,12.4742987 58.0638991,12.5530801 58.2420281,12.5978531 C58.4400159,12.648055 58.6436317,12.6726195 58.8478781,12.6709437 C59.0514412,12.6753899 59.2544398,12.6478424 59.4494562,12.5893078 C59.596138,12.5451482 59.7331705,12.4737085 59.8533625,12.3787375 C59.9511556,12.2998651 60.0279016,12.1980092 60.0767516,12.0822594 C60.121783,11.9747134 60.145168,11.859344 60.1455687,11.7427516 C60.1610843,11.5554971 60.1041759,11.3694254 59.9865719,11.2228844 C59.8906006,11.1180025 59.7714,11.0370546 59.6385187,10.986525 C59.3892979,10.8969181 59.1354006,10.820894 58.8779453,10.7587875 C58.588562,10.687225 58.2319385,10.5941208 57.808075,10.479475 C57.5761793,10.424015 57.3543658,10.3326847 57.15065,10.2087844 C56.9903652,10.1102528 56.8491724,9.98361081 56.7338562,9.83494375 C56.6339226,9.7039263 56.5595621,9.55525734 56.5146641,9.3967125 C56.4718069,9.24282507 56.4501179,9.08381563 56.4501953,8.92407187 C56.4430198,8.6438965 56.5097229,8.36676856 56.6436,8.12054375 C56.7698895,7.89709836 56.9446031,7.7047621 57.1549219,7.55764687 C57.3740255,7.40541179 57.6184652,7.2933703 57.8768156,7.22675937 C58.143092,7.15555647 58.4175291,7.11944364 58.6931609,7.1192751 C58.9997808,7.1174273 59.3050977,7.15938179 59.5998375,7.24392656 C59.8703256,7.32049107 60.1239737,7.44731458 60.3475187,7.61776562 C60.8027425,7.96345111 61.0634773,8.50733067 61.0478969,9.07871875 L59.9736781,9.07871875 C59.9449156,8.68344062 59.8102802,8.40415417 59.5697719,8.24085937 C59.2950883,8.06805584 58.9744494,7.98263549 58.6502016,7.99587969 C58.5203436,7.99625675 58.3908275,8.00921046 58.2634672,8.03455937 C58.1371593,8.05834648 58.0153803,8.10185762 57.9025969,8.16349687 C57.7944639,8.22287939 57.701734,8.30675153 57.6318297,8.4084 C57.459035,8.6952242 57.4976318,9.06189728 57.7263609,9.30645625 C57.8785749,9.43918769 58.0595056,9.53479806 58.254925,9.58576875 C58.2777375,9.59156667 58.3679677,9.61590417 58.5256156,9.65878125 C58.6830875,9.70173646 58.8592505,9.74901354 59.0541047,9.8006125 C59.2488068,9.8521875 59.4393125,9.9023125 59.6256219,9.9509875 C59.8117031,9.9997375 59.9449125,10.0355448 60.02525,10.0584094 C60.2128709,10.1151996 60.3899457,10.2022803 60.5494687,10.3162062 C60.6932752,10.4200227 60.8194929,10.5462404 60.9233094,10.6900469 C61.0218541,10.8272748 61.0973114,10.9796842 61.1466984,11.14125 C61.1946767,11.2971846 61.2193067,11.4593628 61.2197875,11.6225109 C61.2287489,11.9295734 61.1560867,12.2335167 61.0092156,12.503325 C60.8728746,12.7424208 60.6831945,12.9468267 60.4549406,13.1006312 C60.2164847,13.2593487 59.9516462,13.3742902 59.6728516,13.4400625 C59.3803548,13.51169 59.0802829,13.547758 58.7791437,13.5474844 C58.4453809,13.5495719 58.1128886,13.5061941 57.7908328,13.4185469 C57.4982885,13.3409332 57.2238303,13.2066335 56.9830328,13.0232687 C56.749762,12.8406919 56.5615831,12.6069352 56.4330328,12.3400562 C56.2887486,12.0322581 56.2153324,11.6960194 56.2181891,11.3560937 L57.2924047,11.3560937 Z" id="Path" fill="#FFFFFF" fill-rule="nonzero"></path>
            <polygon id="Path" fill="#FFFFFF" fill-rule="nonzero" points="61.4259375 7.26544063 66.3932813 7.26544063 66.3932813 8.19355625 64.4422906 8.19355625 64.4422906 13.4013813 63.3681484 13.4013813 63.3681484 8.19355625 61.4259375 8.19355625"></polygon>
            <path d="M67.8109734,7.26544062 L68.9540094,7.26544062 L71.3172906,13.4013781 L70.1657109,13.4013781 L69.5899969,11.7771594 L67.1406563,11.7771594 L66.5649406,13.4013781 L65.4563906,13.4013781 L67.8109734,7.26544062 Z M67.4328609,10.9607375 L69.3063359,10.9607375 L68.3868406,8.3225 L68.3610594,8.3225 L67.4328609,10.9607375 Z" id="Shape" fill="#FFFFFF" fill-rule="nonzero"></path>
            <path d="M74.7032172,11.3560938 C74.6973938,11.5630987 74.7385005,11.7687369 74.8234562,11.9575953 C74.8998451,12.1192283 75.0150058,12.259471 75.1586906,12.3658438 C75.306885,12.474312 75.474659,12.5530951 75.6527703,12.5978531 C75.8507364,12.6480463 76.0543283,12.6726107 76.2585516,12.6709438 C76.4621395,12.6753949 76.6651637,12.6478474 76.8602047,12.5893078 C77.0068796,12.5451313 77.143909,12.4736932 77.2641109,12.3787375 C77.3618822,12.299844 77.4386237,12.1979941 77.4875,12.0822594 C77.5324954,11.9747023 77.5558789,11.8593402 77.5563172,11.7427516 C77.5718327,11.5554971 77.5149243,11.3694254 77.3973203,11.2228844 C77.3013491,11.1180025 77.1821485,11.0370546 77.0492672,10.986525 C76.8000726,10.8969174 76.5462006,10.8208932 76.2887703,10.7587875 C75.9993109,10.687225 75.642662,10.5941208 75.2188234,10.479475 C74.9869045,10.424014 74.7650664,10.332684 74.5613234,10.2087844 C74.4011069,10.11019 74.2599493,9.98355672 74.1446047,9.83494375 C74.0446646,9.70394131 73.9703269,9.55526606 73.9254891,9.3967125 C73.8825698,9.24283614 73.8608543,9.08382165 73.8609437,8.92407188 C73.8538178,8.64391091 73.9204905,8.36680189 74.0542734,8.12054375 C74.1806082,7.8971311 74.3553135,7.70480404 74.5655953,7.55764688 C74.7847141,7.40543938 75.0291482,7.29340024 75.2874875,7.22675938 C75.553816,7.15555636 75.8283037,7.11944364 76.1039859,7.11927509 C76.410556,7.11742719 76.7158229,7.15938182 77.0105109,7.24392656 C77.2810047,7.32047525 77.5346551,7.4473002 77.7581906,7.61776563 C78.2134141,7.96345145 78.4741493,8.50733061 78.4585703,9.07871875 L77.3843516,9.07871875 C77.3556641,8.68344063 77.2210286,8.40415417 76.9804453,8.24085938 C76.7057819,8.06806272 76.385165,7.98264242 76.0609375,7.99587969 C75.9311047,7.99625311 75.8016137,8.00920688 75.6742797,8.03455938 C75.5479267,8.05835902 75.4260991,8.10186904 75.3132563,8.16349688 C75.2051758,8.22292374 75.1124803,8.30678854 75.0425656,8.4084 C74.869748,8.69523071 74.9083778,9.06193269 75.1371703,9.30645625 C75.2893163,9.43920239 75.4702017,9.53481622 75.6655828,9.58576875 C75.6884703,9.59156667 75.7787005,9.61590417 75.9362734,9.65878125 C76.0938974,9.70173646 76.2700854,9.74901354 76.4648375,9.8006125 C76.6595385,9.8521875 76.8500193,9.9023125 77.0362797,9.9509875 C77.2224359,9.9997375 77.3556448,10.0355448 77.4359063,10.0584094 C77.623556,10.115184 77.8006575,10.2022656 77.9601984,10.3162063 C78.1039872,10.4200435 78.2302019,10.5462581 78.3340391,10.6900469 C78.4326133,10.8272571 78.5080731,10.9796715 78.5574281,11.14125 C78.6054434,11.2971762 78.6300743,11.4593599 78.6305172,11.6225109 C78.6395157,11.929577 78.5668518,12.2335297 78.4199469,12.503325 C78.2835992,12.7424409 78.0938888,12.9468507 77.8655938,13.1006313 C77.6271766,13.2593604 77.362365,13.3743033 77.0835937,13.4400625 C76.791097,13.51169 76.4910251,13.547758 76.1898859,13.5474844 C75.8561231,13.5495719 75.5236308,13.5061941 75.201575,13.4185469 C74.9090308,13.3409328 74.6345727,13.2066331 74.393775,13.0232687 C74.1605261,12.8406886 73.9723719,12.6069313 73.8438484,12.3400562 C73.6994936,12.0322821 73.6260739,11.6960271 73.6290047,11.3560937 L74.7032172,11.3560938 Z" id="Path" fill="#FFFFFF" fill-rule="nonzero"></path>
            <polygon id="Path" fill="#FFFFFF" fill-rule="nonzero" points="79.4210813 7.26544062 83.8383484 7.26544062 83.8383484 8.19355625 80.4953 8.19355625 80.4953 9.8006125 83.5891719 9.8006125 83.5891719 10.6771531 80.4953 10.6771531 80.4953 12.4732656 83.8984687 12.4732656 83.8984687 13.4013813 79.4210813 13.4013813"></polygon>
            <polygon id="Path" fill="#FFFFFF" fill-rule="nonzero" points="84.6888734 7.26544062 89.1061406 7.26544062 89.1061406 8.19355625 85.7630922 8.19355625 85.7630922 9.8006125 88.8569641 9.8006125 88.8569641 10.6771531 85.7630922 10.6771531 85.7630922 12.4732656 89.1662594 12.4732656 89.1662594 13.4013813 84.6888734 13.4013813"></polygon>
        </g>
    </g>
</svg>